<?xml version="1.0" encoding="UTF-8"?>
<svg width="36px" height="41px" viewBox="0 0 36 41" version="1.1" xmlns="http://www.w3.org/2000/svg" xmlns:xlink="http://www.w3.org/1999/xlink">
    <!-- Generator: Sketch 47 (45396) - http://www.bohemiancoding.com/sketch -->
    <title>Untitled 3</title>
    <desc>Created with Sketch.</desc>
    <defs></defs>
    <g id="Page-1" stroke="none" stroke-width="1" fill="none" fill-rule="evenodd">
        <g id="linux" fill-rule="nonzero" fill="#1D2340">
            <path d="M28.1772717,40.367215 C27.6964262,40.818911 25.6814736,41.0429669 24.5620993,40.4774509 C23.2354079,39.8069298 23.9392599,38.7605604 21.8907576,38.7110608 C20.8726243,38.6877156 19.8825149,38.6789006 18.8903332,38.6906217 C18.0125164,38.7022458 17.1354891,38.728594 16.2406014,38.7745094 C13.1648877,38.8007607 12.8639276,40.7751266 10.9047266,40.702863 C9.5638259,40.6540415 7.871542,39.6157121 4.9653527,39.0181328 C2.92296828,38.600728 0.96218846,38.5015351 0.54222575,37.61432 C0.12295377,36.730011 1.05958113,35.7383721 1.12194401,34.8569692 C1.19841748,33.7078227 0.23524643,32.1449526 0.94718979,31.5393331 C1.53509811,31.0379438 2.82320741,31.405752 3.6534626,30.9504718 C4.5364105,30.4696185 4.8909514,30.0690689 4.8909514,29.0133033 C5.215791,30.091736 4.8761501,30.9854412 4.1462478,31.4232851 C3.7121745,31.6808574 2.90500935,31.8172477 2.24131829,31.7508931 C1.71577285,31.7020715 1.39024255,31.7858625 1.230487,31.982311 C1.02682088,32.2376553 1.0922427,32.6842174 1.34860151,33.2788907 C1.60653913,33.8735641 1.91647871,34.2507685 1.87483768,34.978248 C1.83319664,35.7064057 1.01784141,36.5709536 1.14799433,37.1831601 C1.19851616,37.4181621 1.43405445,37.6144169 1.99897139,37.7712464 C2.93550007,38.0295936 4.6070622,38.2638207 6.2564223,38.6584614 C8.0900094,39.0999863 9.9830979,39.9317928 11.1596053,39.7719604 C14.6774837,39.2911071 12.6714118,35.5874516 12.1021531,34.7067267 C9.1328116,30.1179873 7.1691702,27.114107 5.5971716,28.3063598 C5.1868791,28.6164346 5.1712884,27.5256028 5.1891486,27.1053889 C5.25684,25.5972492 6.0372641,25.0696086 6.5010387,23.8956639 C7.3691853,21.6972421 8.0461975,19.1792523 9.3893677,17.8775386 C10.3890487,16.6218372 11.9484168,14.5547685 12.2472061,13.4639367 C11.9959784,11.0919272 11.9187155,8.5950547 11.879936,6.4083539 C11.8420447,4.08225983 12.2174061,2.04144239 14.8931882,0.61428446 C15.5457289,0.26623733 16.3937457,0.13856515 17.292383,0.12984702 C18.899214,0.11231389 20.671129,0.55374189 21.8031338,1.37750834 C23.607809,2.69084623 24.7419846,5.4861694 24.6096609,7.4963765 C24.502598,9.0439415 24.7865859,10.6659012 25.2920016,12.3331952 C25.8969808,14.3133732 26.85433,15.7055617 28.3750173,17.2888711 C30.2078151,19.1968823 31.6341687,22.9560432 32.0355804,25.3368677 C32.413902,27.5608628 31.9211169,28.9355182 31.4238913,29.0047789 C30.6836281,29.1120119 30.2220243,31.4205728 27.9030526,31.3133398 C26.4232169,31.2433042 26.2782627,30.3852464 25.8680689,29.6541827 C25.2087195,28.4852752 24.5383185,28.8508555 24.2692306,30.0693595 C24.1302955,30.6924152 24.2313392,31.5862173 24.4350053,32.2816335 C24.8482581,33.7058854 24.7063628,35.0570987 24.4595755,36.6951385 C23.9861307,39.8391869 26.6975347,40.4338602 28.5266814,38.9395727 C30.3313567,37.4642713 30.7178684,37.2292693 33.001909,36.4639143 C36.4460769,35.3059529 35.2889099,34.2822506 33.4366731,33.6708191 C31.7762613,33.1228362 31.7078792,30.3683913 32.3024975,29.8488876 C32.4348212,32.8068524 34.0030701,33.2358813 34.66834,33.6394338 C37.5176922,35.3756979 33.5917909,36.7999498 31.9210182,37.6259442 C30.5802162,38.2877472 28.8312926,39.7580114 28.1772717,40.367215 Z M25.4211678,28.5463021 C25.4954704,26.7433928 28.3547888,26.876199 29.2913175,27.6306078 C29.2913175,27.2126219 28.3927789,26.8382267 28.0330082,26.6616361 C28.6565383,24.6259527 28.3637683,23.8079983 27.9505155,21.88536 C27.6368263,20.4180986 26.2751051,18.4436359 25.2086208,17.8257142 C25.4777088,18.0569383 25.989045,18.7304623 26.5293917,19.7183234 C27.4599999,21.4191337 28.3785696,23.9327644 27.7668805,26.0436175 C27.5313422,26.8498508 26.9931663,26.9513686 26.6238241,26.9921501 C24.9841342,27.1599257 25.9480946,25.0899509 25.2673327,22.2385411 C24.5092093,19.0689195 23.7317454,18.8311083 23.536368,18.582351 C22.5968791,14.4583848 21.5518074,14.8699774 21.2560771,13.3129193 C20.9907388,11.935261 22.4793566,10.7957045 20.4555232,10.4103631 C19.8386043,10.2914091 18.9557551,9.6770715 18.603385,9.6332871 C18.2547647,9.5865967 18.0837601,7.3596956 19.36289,7.2692208 C20.6420198,7.176518 20.8865375,8.6876606 20.6354085,9.2823339 C20.2718882,9.8711952 20.6621496,10.0914733 21.2946592,9.8996744 C21.8120146,9.743523 21.4782942,8.4205952 21.6016385,8.2244373 C21.2679182,6.3302782 20.4622331,6.0574007 19.6230971,5.8983432 C16.4382484,6.1383824 17.8682529,9.6013206 17.5456829,9.2678037 C17.0945388,8.7978965 15.7380474,9.2415525 15.7447573,8.9401958 C15.7737679,7.1743869 15.1709596,6.1507815 14.3407044,6.1295674 C13.4161154,6.1033162 13.0348335,7.3744196 12.9789832,8.0900812 C12.9261918,8.7774573 13.3952949,10.2097493 13.7377974,10.1002883 C13.962284,10.0273466 14.3465262,9.5844656 13.935543,9.5865967 C13.7229961,9.5895027 13.4019061,9.0999313 13.3684552,8.504483 C13.3364843,7.9105846 13.5580107,7.3130052 14.3436646,7.3443904 C15.2652933,7.3794567 15.2563138,9.1466217 15.1559609,9.2152043 C14.8609213,9.4158182 14.4825997,9.8047437 14.441748,9.8710983 C14.1488793,10.3527266 13.560971,10.4715838 13.3454638,10.6832406 C12.9351713,11.0859214 12.8518892,11.5412015 13.1595592,11.715661 C14.2136104,12.3095594 13.8709106,12.9705874 15.3455164,13.0319049 C16.3139173,13.0691991 17.0431288,12.8837936 17.7023795,12.6860857 C18.2159852,12.5336153 19.8652467,12.1884742 20.2130776,11.5938978 C20.3639524,11.3414594 20.5535079,11.3326445 20.6798125,11.4049081 C20.9012402,11.5303523 20.9489004,11.950663 20.3787537,12.1010023 C19.5633985,12.3184713 18.7398532,12.7452722 18.0181409,13.0290957 C17.2979089,13.3158254 17.0675017,13.4260613 16.3881212,13.5485994 C14.8569743,13.8177959 13.7265484,13.0057505 14.7537598,13.9805344 C15.0941901,14.3053331 15.4218912,14.5080781 16.3026683,14.4731087 C18.2314773,14.3979391 20.3927656,12.1243475 20.6061019,13.1422377 C20.6507032,13.3508916 19.9952022,13.6347152 19.4838661,13.8842475 C17.6755398,14.7577072 16.4023305,16.4825409 15.2442754,15.8856396 C14.2081832,15.3493777 13.1773208,12.8262539 13.1950824,13.9565111 C13.224093,15.6995559 10.8545008,17.2508988 11.9448645,19.2347578 C11.2388417,19.4236506 9.628853,22.7581417 9.3977551,24.4946964 C9.2714506,25.4781983 9.4937664,26.7135574 9.2535903,27.4038396 C8.90497,28.4012905 7.3219197,26.453079 7.8272367,24.0656675 C7.9180181,23.6453567 7.841446,23.5563349 7.7268838,23.7591768 C7.0833225,24.8755818 7.4369753,26.4327367 7.9446605,27.5256997 C8.1669763,27.9985129 8.6865025,28.2071668 9.070646,28.6281557 C9.9001119,29.5387159 13.073909,31.8496017 13.6491868,32.4033967 C14.3462302,33.0760489 14.1508528,34.6192548 12.6687476,34.7666881 C13.4283512,36.1734068 14.1686144,36.3068911 14.1574641,38.6068307 C15.0167299,38.1536817 14.6710698,37.1628178 14.3113977,36.5098298 C14.0601701,36.0633647 13.7316795,35.8605228 13.8030218,35.7561959 C13.8566026,35.6774421 14.2987673,35.3038218 14.564895,35.5963635 C15.3475886,36.4574241 16.8251548,36.6114444 18.4142242,36.4173207 C20.0003333,36.2196129 21.7016954,35.675311 22.4880401,34.4341398 C22.8566915,33.8510907 23.1228192,33.6446647 23.2937251,33.7467637 C23.4624601,33.8510907 23.536072,34.2625864 23.5181131,34.9236144 C23.4980819,35.6575841 23.1851821,36.4200331 22.9903968,37.0293335 C22.7710412,37.7196157 22.7035472,38.2091871 23.3887496,38.2354384 C23.5924157,36.959201 23.9500155,35.7034996 24.05323,34.434043 C24.168779,32.9897394 23.1029855,30.301068 24.2513703,28.9614789 C24.5649609,28.5959955 24.9344018,28.5551171 25.4211678,28.5463021 Z" id="Shape"></path>
        </g>
    </g>
</svg>