<?xml version="1.0" encoding="UTF-8"?>
<svg width="25px" height="25px" viewBox="0 0 25 25" version="1.1" xmlns="http://www.w3.org/2000/svg" xmlns:xlink="http://www.w3.org/1999/xlink">
    <!-- Generator: Sketch 47.1 (45422) - http://www.bohemiancoding.com/sketch -->
    <title>Artboard</title>
    <desc>Created with Sketch.</desc>
    <defs></defs>
    <g id="Page-1" stroke="none" stroke-width="1" fill="none" fill-rule="evenodd">
        <g id="Artboard" fill-rule="nonzero" fill="#000000">
            <g id="thumbs-up" transform="translate(12.000000, 13.000000) rotate(-180.000000) translate(-12.000000, -13.000000) translate(0.000000, 1.000000)">
                <path d="M5,22 L0,22 L0,10 L5,10 L5,22 Z M22.615,13.588 C21.758,13.473 22.037,12.854 22.646,12.666 C23.167,12.506 24,12.166 24,11.156 C24,10.484 23.5,9.594 21.729,9.666 C20.501,9.716 18.063,9.468 16.75,8.781 C17.656,5.125 17.438,-1.77635684e-15 15.062,-1.77635684e-15 C13.468,-1.77635684e-15 13.166,1.807 12.687,3.469 C11.466,7.711 9.375,9.486 7,10.354 L7,21.232 C11.382,21.933 13.345,24 17.505,24 C20.703,24 22.357,22.265 22.357,21.334 C22.357,20.999 22.085,20.761 21.397,20.708 C20.586,20.646 20.663,19.896 21.428,19.755 C22.696,19.521 23.254,18.841 23.254,18.212 C23.254,17.683 22.858,17.19 22.156,17.031 C21.319,16.842 21.492,16.274 22.187,16.219 C23.32,16.129 23.875,15.455 23.875,14.809 C23.875,14.244 23.451,13.7 22.615,13.588 L22.615,13.588 Z" id="Shape"></path>
            </g>
        </g>
    </g>
</svg>